PathFileType	4	(X/Y/Z)	6_coords_data.trc
DataRate	CameraRate	NumFrames	NumMarkers	Units	OrigDataRate	OrigDataStartFrame	OrigNumFrames
30.0	30.0	6	21	m	30.0	51	71
Frame#	Time	THUMB_TIP	THUMB_IP	THUMB_MCP	THUMB_CMC	INDEX_TIP	INDEX_DIP	INDEX_PIP	INDEX_MCP	MIDDLE_TIP	MIDDLE_DIP	MIDDLE_PIP	MIDDLE_MCP	RING_TIP	RING_DIP	RING_PIP	RING_MCP	PINKY_TIP	PINKY_DIP	PINKY_PIP	PINKY_MCP	WRIST
X1	Y1	Z1	X2	Y2	Z2	X3	Y3	Z3	X4	Y4	Z4	X5	Y5	Z5	X6	Y6	Z6	X7	Y7	Z7	X8	Y8	Z8	X9	Y9	Z9	X10	Y10	Z10	X11	Y11	Z11	X12	Y12	Z12	X13	Y13	Z13	X14	Y14	Z14	X15	Y15	Z15	X16	Y16	Z16	X17	Y17	Z17	X18	Y18	Z18	X19	Y19	Z19	X20	Y20	Z20	X21	Y21	Z21
50	1.6666666666666667	0.07154509735107421	-0.11075299835205078	0.9800560302734375	0.05671799850463867	-0.09138610076904297	0.9938740234375	0.03821889877319336	-0.07823770141601563	1.017719970703125	0.017888999938964843	-0.051770301818847654	1.032949951171875	0.05188589859008789	-0.09934420013427735	0.9194149780273437	0.037987300872802734	-0.09978720092773438	0.9375919799804687	0.023140899658203123	-0.09865399932861328	0.9578569946289063	0.001137300014495849	-0.0918843002319336	0.991052978515625	0.05889089965820313	-0.04641830062866211	0.9886599731445312	0.04921960067749023	-0.05447650146484375	0.9713569946289062	0.025553699493408202	-0.06737220001220703	0.9574320068359375	-0.013803700447082519	-0.07437590026855469	0.9782559814453125	0.060333301544189456	-0.03214139938354492	0.987072998046875	0.04535219955444336	-0.037402400970458986	0.9730590209960938	0.020597700119018555	-0.04497249984741211	0.958822021484375	-0.018782400131225587	-0.05068529891967773	0.9751690063476562	0.022893600463867188	-0.019141000747680666	0.91997900390625	0.012020500183105468	-0.021510700225830078	0.9365239868164063	0.0006756079792976371	-0.024351200103759765	0.95256201171875	-0.015554100036621095	-0.029162399291992186	0.9778829956054688	-0.017336700439453127	-0.03447740173339844	1.05318994140625
51	1.7	0.05742559814453125	-0.12151200103759766	0.98127197265625	0.04789640045166016	-0.09786609649658203	0.9936129760742187	0.031555200576782225	-0.08185749816894532	1.0174400024414063	0.014847700119018554	-0.05203459930419922	1.0324300537109374	0.04950120162963867	-0.09497940063476562	0.9163280029296875	0.03480270004272461	-0.09491419982910156	0.93406201171875	0.019487499237060547	-0.09347979736328126	0.9536950073242187	-0.0025042901039123533	-0.0862313003540039	0.9868040161132813	0.06700250244140625	-0.04741880035400391	0.9795059814453125	0.05212900161743164	-0.054326698303222655	0.9648170166015625	0.02469379997253418	-0.06339590072631836	0.9541669921875	-0.0145733003616333	-0.06620939636230469	0.9755269775390625	0.07005609893798828	-0.03319800186157226	0.9780800170898437	0.052148300170898436	-0.035767101287841795	0.9668049926757812	0.022950300216674803	-0.03968429946899414	0.9578359985351562	-0.016096799850463868	-0.04224029922485351	0.9739110107421876	0.03450550079345703	-0.011453200340270996	0.9255900268554688	0.021160400390625	-0.013545100212097167	0.940406982421875	0.007464250087738037	-0.016184999465942384	0.9548690185546875	-0.011713700294494629	-0.02119529914855957	0.9780399780273438	-0.018958799362182616	-0.03198049926757812	1.05302001953125
52	1.7333333333333334	0.04259410095214844	-0.1270199966430664	0.9792940063476563	0.037662799835205076	-0.10231500244140625	0.992531005859375	0.02377829933166504	-0.08486869812011719	1.0167899780273437	0.010543800354003907	-0.05322930145263672	1.032780029296875	0.04777349853515625	-0.09207879638671874	0.913864990234375	0.032513999938964845	-0.09123829650878906	0.93147900390625	0.017156099319458006	-0.08912590026855469	0.95072802734375	-0.00435713005065918	-0.08097489929199218	0.9838829956054688	0.07482700347900391	-0.05071630096435547	0.9626610107421875	0.05401300048828125	-0.05561940002441406	0.953948974609375	0.023545799255371095	-0.060347999572753906	0.9507119750976563	-0.013989399909973145	-0.0592047004699707	0.97385498046875	0.07502619934082032	-0.03466170120239258	0.9661480102539063	0.055835700988769534	-0.03454880142211914	0.9587559814453125	0.025082799911499025	-0.03528799819946289	0.955697021484375	-0.013262100219726562	-0.03528559875488281	0.9740369873046875	0.042979900360107424	-0.006333300113677978	0.9306749877929688	0.028114999771118164	-0.007986559867858886	0.944156982421875	0.012876700401306153	-0.010110600471496582	0.9574580078125	-0.007957359790802003	-0.014722299575805665	0.9795659790039063	-0.020763399124145508	-0.029739999771118165	1.0527900390625
53	1.7666666666666666	0.03071139907836914	-0.12750599670410157	0.975958984375	0.02908930015563965	-0.10316500091552734	0.990427001953125	0.017092199325561525	-0.08566419982910156	1.0153800048828125	0.006626939773559571	-0.05378639984130859	1.03272998046875	0.048386600494384764	-0.08824089813232422	0.9128790283203125	0.03258670043945312	-0.08685679626464844	0.9298330078125	0.016718700408935548	-0.08427870178222656	0.9487319946289062	-0.005126130104064941	-0.07602110290527343	0.9816110229492188	0.07707060241699219	-0.052745899200439456	0.9511699829101562	0.05453469848632812	-0.054817298889160156	0.9460689697265625	0.023615800857543945	-0.05622529983520508	0.9474219970703125	-0.012295299530029297	-0.0528484992980957	0.9725380249023438	0.07859929656982421	-0.033732101440429686	0.9575369873046875	0.05801229858398437	-0.031882999420166015	0.953280029296875	0.027472999572753905	-0.030546300888061522	0.9542659912109375	-0.010092000007629394	-0.02923990058898926	0.9741339721679687	0.0511890983581543	-0.001451110005378723	0.9368599853515625	0.03515589904785156	-0.002746140003204345	0.9489819946289062	0.018644399642944336	-0.004586750030517578	0.960948974609375	-0.003802409887313842	-0.009239529609680176	0.9811690063476562	-0.022437799453735353	-0.027604000091552734	1.0526800537109375
54	1.8	0.021123600006103516	-0.1258300018310547	0.973156982421875	0.02181290054321289	-0.10235900115966796	0.988927978515625	0.010805299758911133	-0.08510220336914062	1.0145999755859374	0.003140820026397705	-0.05291619873046875	1.0327900390625	0.04912779998779297	-0.08372540283203125	0.912926025390625	0.032843399047851565	-0.0820519027709961	0.9293090209960938	0.016363000869750975	-0.07939119720458984	0.9477440185546875	-0.0062821898460388185	-0.07133989715576172	0.9800479736328125	0.07709559631347657	-0.05371860122680664	0.9437529907226563	0.05392660140991211	-0.053345001220703125	0.9412009887695313	0.023238300323486328	-0.052345901489257815	0.9453389892578125	-0.011163800239562989	-0.04712749862670899	0.972093017578125	0.07966419982910156	-0.03242190170288086	0.9487459716796875	0.058366798400878904	-0.029246400833129883	0.9481099853515625	0.02885370063781738	-0.026575899124145506	0.9528920288085938	-0.007564239978790284	-0.02416510009765625	0.974697998046875	0.05755749893188476	0.0009061959981918331	0.9421279907226563	0.04064670181274414	0.00038710799813270505	0.9529030151367187	0.02346809959411621	-0.000816908001899719	0.9639169921875	-0.00039423298835754305	-0.004760210037231445	0.9827979736328125	-0.023758699417114258	-0.02505590057373047	1.05281005859375
55	1.8333333333333333	0.015153900146484375	-0.12406999969482421	0.97289501953125	0.017012399673461916	-0.1010749969482422	0.989448974609375	0.006722700119018554	-0.08375090026855468	1.0151799926757812	0.0005053809881210321	-0.051564399719238284	1.0335899658203125	0.0482218017578125	-0.08170279693603516	0.9129860229492187	0.031865800857543945	-0.07938700103759766	0.9292249755859375	0.01531470012664795	-0.0762177963256836	0.9476840209960937	-0.007026380062103271	-0.06752339935302734	0.9798839721679687	0.07613610076904297	-0.05369210052490234	0.936989013671875	0.05281840133666992	-0.05174900054931641	0.9375260009765625	0.022675899505615233	-0.04924929809570312	0.9445230102539063	-0.010230999946594238	-0.042810001373291016	0.9726690063476563	0.0792156982421875	-0.030195600509643556	0.9414240112304687	0.05773369979858398	-0.026453800201416015	0.9439010009765625	0.029228200912475587	-0.023194799423217772	0.9517039794921875	-0.005303339958190918	-0.02029450035095215	0.9757059936523438	0.06125120162963867	0.002436160087585449	0.94564599609375	0.04395619964599609	0.002580270051956176	0.9557890014648438	0.026432300567626955	0.001984930038452148	0.9663870239257812	0.002081490039825439	-0.001437669992446899	0.9847780151367187	-0.025013500213623047	-0.022038999557495116	1.0534200439453125
